<mxfile host="65bd71144e">
    <diagram id="ekgnhu82ao4ZkAPiSTXk" name="Page-1">
        <mxGraphModel dx="519" dy="266" grid="1" gridSize="10" guides="1" tooltips="1" connect="1" arrows="1" fold="1" page="1" pageScale="1" pageWidth="827" pageHeight="1169" math="0" shadow="0">
            <root>
                <mxCell id="0"/>
                <mxCell id="1" parent="0"/>
                <mxCell id="27" value="" style="edgeStyle=none;html=1;" edge="1" parent="1" source="2" target="3">
                    <mxGeometry relative="1" as="geometry"/>
                </mxCell>
                <mxCell id="28" value="" style="edgeStyle=none;html=1;" edge="1" parent="1" source="2" target="3">
                    <mxGeometry relative="1" as="geometry"/>
                </mxCell>
                <mxCell id="29" value="" style="edgeStyle=none;html=1;" edge="1" parent="1" source="2" target="3">
                    <mxGeometry relative="1" as="geometry"/>
                </mxCell>
                <mxCell id="2" value="&lt;span style=&quot;background-color: rgb(24, 20, 29);&quot;&gt;&lt;font color=&quot;#ffffff&quot;&gt;Bob&lt;/font&gt;&lt;/span&gt;" style="shape=umlActor;verticalLabelPosition=bottom;verticalAlign=top;html=1;outlineConnect=0;" parent="1" vertex="1">
                    <mxGeometry x="50" y="71" width="30" height="60" as="geometry"/>
                </mxCell>
                <mxCell id="3" value="&lt;span style=&quot;background-color: rgb(24, 20, 29);&quot;&gt;&lt;font color=&quot;#ffffff&quot;&gt;Alice&lt;/font&gt;&lt;/span&gt;" style="shape=umlActor;verticalLabelPosition=bottom;verticalAlign=top;html=1;outlineConnect=0;" parent="1" vertex="1">
                    <mxGeometry x="100" y="240" width="30" height="60" as="geometry"/>
                </mxCell>
                <mxCell id="9" value="" style="endArrow=classic;html=1;" parent="1" source="2" target="8" edge="1">
                    <mxGeometry width="50" height="50" relative="1" as="geometry">
                        <mxPoint x="390" y="280" as="sourcePoint"/>
                        <mxPoint x="440" y="230" as="targetPoint"/>
                    </mxGeometry>
                </mxCell>
                <mxCell id="10" value="Smartcontract&#10;" style="swimlane;startSize=0;labelBackgroundColor=none;" parent="1" vertex="1">
                    <mxGeometry x="314" y="74" width="200" height="450" as="geometry"/>
                </mxCell>
                <mxCell id="8" value="Want 2 Eth&lt;br&gt;For 5000 USDC&lt;br&gt;" style="rhombus;whiteSpace=wrap;html=1;" parent="10" vertex="1">
                    <mxGeometry x="30" y="20" width="130" height="110" as="geometry"/>
                </mxCell>
                <mxCell id="16" value="Sell 1 ETH&lt;br&gt;For 2500 USDC" style="rhombus;whiteSpace=wrap;html=1;" parent="10" vertex="1">
                    <mxGeometry x="30" y="160" width="130" height="110" as="geometry"/>
                </mxCell>
                <mxCell id="19" value="Supply to users" style="rhombus;whiteSpace=wrap;html=1;" parent="10" vertex="1">
                    <mxGeometry x="20" y="280" width="150" height="140" as="geometry"/>
                </mxCell>
                <mxCell id="14" value="Lumina &lt;br&gt;Backend" style="shape=cylinder3;whiteSpace=wrap;html=1;boundedLbl=1;backgroundOutline=1;size=15;" parent="1" vertex="1">
                    <mxGeometry x="670" y="90" width="100" height="190" as="geometry"/>
                </mxCell>
                <mxCell id="15" value="Listen en event" style="endArrow=classic;html=1;exitX=1;exitY=0.5;exitDx=0;exitDy=0;entryX=-0.01;entryY=0.374;entryDx=0;entryDy=0;entryPerimeter=0;" parent="1" source="8" target="14" edge="1">
                    <mxGeometry width="50" height="50" relative="1" as="geometry">
                        <mxPoint x="390" y="250" as="sourcePoint"/>
                        <mxPoint x="440" y="200" as="targetPoint"/>
                    </mxGeometry>
                </mxCell>
                <mxCell id="17" value="" style="endArrow=classic;html=1;exitX=0.5;exitY=0.5;exitDx=0;exitDy=0;exitPerimeter=0;" parent="1" source="3" target="16" edge="1">
                    <mxGeometry width="50" height="50" relative="1" as="geometry">
                        <mxPoint x="390" y="250" as="sourcePoint"/>
                        <mxPoint x="440" y="200" as="targetPoint"/>
                    </mxGeometry>
                </mxCell>
                <mxCell id="18" value="Listen en event" style="endArrow=classic;html=1;exitX=1;exitY=0.5;exitDx=0;exitDy=0;entryX=0.01;entryY=0.789;entryDx=0;entryDy=0;entryPerimeter=0;" parent="1" source="16" target="14" edge="1">
                    <mxGeometry width="50" height="50" relative="1" as="geometry">
                        <mxPoint x="484" y="135" as="sourcePoint"/>
                        <mxPoint x="639" y="171.05999999999995" as="targetPoint"/>
                    </mxGeometry>
                </mxCell>
                <mxCell id="20" value="" style="endArrow=classic;html=1;exitX=0.5;exitY=1;exitDx=0;exitDy=0;exitPerimeter=0;entryX=1;entryY=0.5;entryDx=0;entryDy=0;" parent="1" source="14" target="19" edge="1">
                    <mxGeometry width="50" height="50" relative="1" as="geometry">
                        <mxPoint x="390" y="300" as="sourcePoint"/>
                        <mxPoint x="440" y="250" as="targetPoint"/>
                    </mxGeometry>
                </mxCell>
                <mxCell id="23" value="Create a verifiable proof" style="edgeLabel;html=1;align=center;verticalAlign=middle;resizable=0;points=[];" parent="20" vertex="1" connectable="0">
                    <mxGeometry x="-0.1721" y="4" relative="1" as="geometry">
                        <mxPoint as="offset"/>
                    </mxGeometry>
                </mxCell>
                <mxCell id="21" value="&lt;span style=&quot;font-size: 12px; font-weight: 400; background-color: rgb(24, 20, 29);&quot;&gt;&lt;font color=&quot;#ffffff&quot;&gt;Supply 2500 USDC for Alice&lt;/font&gt;&lt;/span&gt;" style="endArrow=classic;html=1;exitX=0;exitY=0;exitDx=0;exitDy=0;fontStyle=1;labelBackgroundColor=none;" parent="1" source="19" target="3" edge="1">
                    <mxGeometry x="-0.0008" width="50" height="50" relative="1" as="geometry">
                        <mxPoint x="400" y="460" as="sourcePoint"/>
                        <mxPoint x="110" y="320" as="targetPoint"/>
                        <mxPoint as="offset"/>
                    </mxGeometry>
                </mxCell>
                <mxCell id="22" value="&lt;span style=&quot;font-family: Helvetica; font-size: 12px; font-style: normal; font-variant-ligatures: normal; font-variant-caps: normal; font-weight: 400; letter-spacing: normal; orphans: 2; text-align: center; text-indent: 0px; text-transform: none; widows: 2; word-spacing: 0px; -webkit-text-stroke-width: 0px; text-decoration-thickness: initial; text-decoration-style: initial; text-decoration-color: initial; float: none; display: inline !important; background-color: rgb(24, 20, 29);&quot;&gt;&lt;font color=&quot;#ffffff&quot;&gt;Supply 1 Eth to Bob&lt;/font&gt;&lt;/span&gt;" style="endArrow=classic;html=1;exitX=0.5;exitY=1;exitDx=0;exitDy=0;labelBackgroundColor=none;" parent="1" source="19" target="2" edge="1">
                    <mxGeometry x="0.8644" y="-18" width="50" height="50" relative="1" as="geometry">
                        <mxPoint x="400" y="460" as="sourcePoint"/>
                        <mxPoint x="30" y="170" as="targetPoint"/>
                        <Array as="points">
                            <mxPoint x="65" y="494"/>
                        </Array>
                        <mxPoint as="offset"/>
                    </mxGeometry>
                </mxCell>
                <mxCell id="26" value="Order offchain" style="text;strokeColor=none;fillColor=none;html=1;fontSize=24;fontStyle=1;verticalAlign=middle;align=center;" parent="1" vertex="1">
                    <mxGeometry x="350" y="10" width="100" height="40" as="geometry"/>
                </mxCell>
            </root>
        </mxGraphModel>
    </diagram>
</mxfile>